<svg width="116" height="116" viewBox="0 0 116 116" fill="none" xmlns="http://www.w3.org/2000/svg">
<circle cx="58" cy="58" r="56.5" stroke="#E0E0E0" stroke-width="3"/>
<mask id="path-3-outside-1" maskUnits="userSpaceOnUse" x="26" y="30.1333" width="64" height="55" fill="black">
<rect fill="white" x="26" y="30.1333" width="64" height="55"/>
<path d="M87.9667 62.1333H86.9333V59.0333C86.9306 56.9814 85.714 55.1255 83.8333 54.3048V38.3666C83.8331 37.9559 83.5897 37.5844 83.2133 37.4201C83.6165 36.774 83.8311 36.0282 83.8333 35.2666C83.8333 32.9839 81.9828 31.1333 79.7 31.1333C77.4172 31.1333 75.5667 32.9839 75.5667 35.2666C75.5709 35.9944 75.7693 36.7077 76.1412 37.3333H39.8588C40.2307 36.7077 40.4291 35.9944 40.4333 35.2666C40.4333 32.9839 38.5828 31.1333 36.3 31.1333C34.0172 31.1333 32.1667 32.9839 32.1667 35.2666C32.1689 36.0282 32.3835 36.774 32.7867 37.4201C32.4103 37.5844 32.1669 37.9559 32.1667 38.3666V54.3048C30.286 55.1255 29.0694 56.9814 29.0667 59.0333V62.1333H28.0333C27.4627 62.1333 27 62.596 27 63.1666V77.6333C27 78.204 27.4627 78.6666 28.0333 78.6666H29.0667V83.8333C29.0667 84.404 29.5293 84.8666 30.1 84.8666H34.2333C34.804 84.8666 35.2667 84.404 35.2667 83.8333V78.6666H80.7333V83.8333C80.7333 84.404 81.196 84.8666 81.7667 84.8666H85.9C86.4707 84.8666 86.9333 84.404 86.9333 83.8333V78.6666H87.9667C88.5373 78.6666 89 78.204 89 77.6333V63.1666C89 62.596 88.5373 62.1333 87.9667 62.1333ZM79.7 33.2C80.8414 33.2 81.7667 34.1252 81.7667 35.2666C81.7667 36.4081 80.8414 37.3333 79.7 37.3333C78.5586 37.3333 77.6333 36.4081 77.6333 35.2666C77.6333 34.1252 78.5586 33.2 79.7 33.2ZM36.3 33.2C37.4414 33.2 38.3667 34.1252 38.3667 35.2666C38.3667 36.4081 37.4414 37.3333 36.3 37.3333C35.1586 37.3333 34.2333 36.4081 34.2333 35.2666C34.2333 34.1252 35.1586 33.2 36.3 33.2ZM34.2333 39.4H81.7667V53.8666H77.6065C78.2903 52.9776 78.6629 51.8883 78.6667 50.7666V48.7C78.6633 45.848 76.352 43.5367 73.5 43.5333H65.2333C62.3813 43.5367 60.07 45.848 60.0667 48.7V50.7666C60.0704 51.8883 60.4431 52.9776 61.1269 53.8666H54.8731C55.5569 52.9776 55.9296 51.8883 55.9333 50.7666V48.7C55.93 45.848 53.6187 43.5367 50.7667 43.5333H42.5C39.648 43.5367 37.3367 45.848 37.3333 48.7V50.7666C37.3371 51.8883 37.7097 52.9776 38.3935 53.8666H34.2333V39.4ZM76.6 48.7V50.7666C76.6 52.4787 75.2121 53.8666 73.5 53.8666H65.2333C63.5212 53.8666 62.1333 52.4787 62.1333 50.7666V48.7C62.1333 46.9879 63.5212 45.6 65.2333 45.6H73.5C75.2121 45.6 76.6 46.9879 76.6 48.7ZM53.8667 48.7V50.7666C53.8667 52.4787 52.4788 53.8666 50.7667 53.8666H42.5C40.7879 53.8666 39.4 52.4787 39.4 50.7666V48.7C39.4 46.9879 40.7879 45.6 42.5 45.6H50.7667C52.4788 45.6 53.8667 46.9879 53.8667 48.7ZM31.1333 59.0333C31.1333 57.3212 32.5212 55.9333 34.2333 55.9333H81.7667C83.4788 55.9333 84.8667 57.3212 84.8667 59.0333V62.1333H31.1333V59.0333ZM33.2 82.8H31.1333V78.6666H33.2V82.8ZM84.8667 82.8H82.8V78.6666H84.8667V82.8ZM86.9333 76.6H29.0667V64.2H86.9333V76.6Z"/>
</mask>
<path d="M87.9667 62.1333H86.9333V59.0333C86.9306 56.9814 85.714 55.1255 83.8333 54.3048V38.3666C83.8331 37.9559 83.5897 37.5844 83.2133 37.4201C83.6165 36.774 83.8311 36.0282 83.8333 35.2666C83.8333 32.9839 81.9828 31.1333 79.7 31.1333C77.4172 31.1333 75.5667 32.9839 75.5667 35.2666C75.5709 35.9944 75.7693 36.7077 76.1412 37.3333H39.8588C40.2307 36.7077 40.4291 35.9944 40.4333 35.2666C40.4333 32.9839 38.5828 31.1333 36.3 31.1333C34.0172 31.1333 32.1667 32.9839 32.1667 35.2666C32.1689 36.0282 32.3835 36.774 32.7867 37.4201C32.4103 37.5844 32.1669 37.9559 32.1667 38.3666V54.3048C30.286 55.1255 29.0694 56.9814 29.0667 59.0333V62.1333H28.0333C27.4627 62.1333 27 62.596 27 63.1666V77.6333C27 78.204 27.4627 78.6666 28.0333 78.6666H29.0667V83.8333C29.0667 84.404 29.5293 84.8666 30.1 84.8666H34.2333C34.804 84.8666 35.2667 84.404 35.2667 83.8333V78.6666H80.7333V83.8333C80.7333 84.404 81.196 84.8666 81.7667 84.8666H85.9C86.4707 84.8666 86.9333 84.404 86.9333 83.8333V78.6666H87.9667C88.5373 78.6666 89 78.204 89 77.6333V63.1666C89 62.596 88.5373 62.1333 87.9667 62.1333ZM79.7 33.2C80.8414 33.2 81.7667 34.1252 81.7667 35.2666C81.7667 36.4081 80.8414 37.3333 79.7 37.3333C78.5586 37.3333 77.6333 36.4081 77.6333 35.2666C77.6333 34.1252 78.5586 33.2 79.7 33.2ZM36.3 33.2C37.4414 33.2 38.3667 34.1252 38.3667 35.2666C38.3667 36.4081 37.4414 37.3333 36.3 37.3333C35.1586 37.3333 34.2333 36.4081 34.2333 35.2666C34.2333 34.1252 35.1586 33.2 36.3 33.2ZM34.2333 39.4H81.7667V53.8666H77.6065C78.2903 52.9776 78.6629 51.8883 78.6667 50.7666V48.7C78.6633 45.848 76.352 43.5367 73.5 43.5333H65.2333C62.3813 43.5367 60.07 45.848 60.0667 48.7V50.7666C60.0704 51.8883 60.4431 52.9776 61.1269 53.8666H54.8731C55.5569 52.9776 55.9296 51.8883 55.9333 50.7666V48.7C55.93 45.848 53.6187 43.5367 50.7667 43.5333H42.5C39.648 43.5367 37.3367 45.848 37.3333 48.7V50.7666C37.3371 51.8883 37.7097 52.9776 38.3935 53.8666H34.2333V39.4ZM76.6 48.7V50.7666C76.6 52.4787 75.2121 53.8666 73.5 53.8666H65.2333C63.5212 53.8666 62.1333 52.4787 62.1333 50.7666V48.7C62.1333 46.9879 63.5212 45.6 65.2333 45.6H73.5C75.2121 45.6 76.6 46.9879 76.6 48.7ZM53.8667 48.7V50.7666C53.8667 52.4787 52.4788 53.8666 50.7667 53.8666H42.5C40.7879 53.8666 39.4 52.4787 39.4 50.7666V48.7C39.4 46.9879 40.7879 45.6 42.5 45.6H50.7667C52.4788 45.6 53.8667 46.9879 53.8667 48.7ZM31.1333 59.0333C31.1333 57.3212 32.5212 55.9333 34.2333 55.9333H81.7667C83.4788 55.9333 84.8667 57.3212 84.8667 59.0333V62.1333H31.1333V59.0333ZM33.2 82.8H31.1333V78.6666H33.2V82.8ZM84.8667 82.8H82.8V78.6666H84.8667V82.8ZM86.9333 76.6H29.0667V64.2H86.9333V76.6Z" fill="#E0E0E0"/>
<path d="M87.9667 62.1333H86.9333V59.0333C86.9306 56.9814 85.714 55.1255 83.8333 54.3048V38.3666C83.8331 37.9559 83.5897 37.5844 83.2133 37.4201C83.6165 36.774 83.8311 36.0282 83.8333 35.2666C83.8333 32.9839 81.9828 31.1333 79.7 31.1333C77.4172 31.1333 75.5667 32.9839 75.5667 35.2666C75.5709 35.9944 75.7693 36.7077 76.1412 37.3333H39.8588C40.2307 36.7077 40.4291 35.9944 40.4333 35.2666C40.4333 32.9839 38.5828 31.1333 36.3 31.1333C34.0172 31.1333 32.1667 32.9839 32.1667 35.2666C32.1689 36.0282 32.3835 36.774 32.7867 37.4201C32.4103 37.5844 32.1669 37.9559 32.1667 38.3666V54.3048C30.286 55.1255 29.0694 56.9814 29.0667 59.0333V62.1333H28.0333C27.4627 62.1333 27 62.596 27 63.1666V77.6333C27 78.204 27.4627 78.6666 28.0333 78.6666H29.0667V83.8333C29.0667 84.404 29.5293 84.8666 30.1 84.8666H34.2333C34.804 84.8666 35.2667 84.404 35.2667 83.8333V78.6666H80.7333V83.8333C80.7333 84.404 81.196 84.8666 81.7667 84.8666H85.9C86.4707 84.8666 86.9333 84.404 86.9333 83.8333V78.6666H87.9667C88.5373 78.6666 89 78.204 89 77.6333V63.1666C89 62.596 88.5373 62.1333 87.9667 62.1333ZM79.7 33.2C80.8414 33.2 81.7667 34.1252 81.7667 35.2666C81.7667 36.4081 80.8414 37.3333 79.7 37.3333C78.5586 37.3333 77.6333 36.4081 77.6333 35.2666C77.6333 34.1252 78.5586 33.2 79.7 33.2ZM36.3 33.2C37.4414 33.2 38.3667 34.1252 38.3667 35.2666C38.3667 36.4081 37.4414 37.3333 36.3 37.3333C35.1586 37.3333 34.2333 36.4081 34.2333 35.2666C34.2333 34.1252 35.1586 33.2 36.3 33.2ZM34.2333 39.4H81.7667V53.8666H77.6065C78.2903 52.9776 78.6629 51.8883 78.6667 50.7666V48.7C78.6633 45.848 76.352 43.5367 73.5 43.5333H65.2333C62.3813 43.5367 60.07 45.848 60.0667 48.7V50.7666C60.0704 51.8883 60.4431 52.9776 61.1269 53.8666H54.8731C55.5569 52.9776 55.9296 51.8883 55.9333 50.7666V48.7C55.93 45.848 53.6187 43.5367 50.7667 43.5333H42.5C39.648 43.5367 37.3367 45.848 37.3333 48.7V50.7666C37.3371 51.8883 37.7097 52.9776 38.3935 53.8666H34.2333V39.4ZM76.6 48.7V50.7666C76.6 52.4787 75.2121 53.8666 73.5 53.8666H65.2333C63.5212 53.8666 62.1333 52.4787 62.1333 50.7666V48.7C62.1333 46.9879 63.5212 45.6 65.2333 45.6H73.5C75.2121 45.6 76.6 46.9879 76.6 48.7ZM53.8667 48.7V50.7666C53.8667 52.4787 52.4788 53.8666 50.7667 53.8666H42.5C40.7879 53.8666 39.4 52.4787 39.4 50.7666V48.7C39.4 46.9879 40.7879 45.6 42.5 45.6H50.7667C52.4788 45.6 53.8667 46.9879 53.8667 48.7ZM31.1333 59.0333C31.1333 57.3212 32.5212 55.9333 34.2333 55.9333H81.7667C83.4788 55.9333 84.8667 57.3212 84.8667 59.0333V62.1333H31.1333V59.0333ZM33.2 82.8H31.1333V78.6666H33.2V82.8ZM84.8667 82.8H82.8V78.6666H84.8667V82.8ZM86.9333 76.6H29.0667V64.2H86.9333V76.6Z" stroke="#E0E0E0" stroke-width="0.4" mask="url(#path-3-outside-1)"/>
</svg>
