<svg width="116" height="116" viewBox="0 0 116 116" fill="none" xmlns="http://www.w3.org/2000/svg">
<circle cx="58" cy="58" r="56.5" stroke="#E0E0E0" stroke-width="3"/>
<mask id="path-3-outside-1" maskUnits="userSpaceOnUse" x="27" y="27" width="62" height="62" fill="black">
<rect fill="white" x="27" y="27" width="62" height="62"/>
<path d="M87 37.1525H76V29.0169C76 28.4553 75.5522 28 75 28H41C40.4478 28 40 28.4553 40 29.0169V43.2542H29C28.4477 43.2542 28 43.7096 28 44.2712V85.9661C28 86.5277 28.4477 86.9831 29 86.9831C29.5523 86.9831 30 86.5277 30 85.9661V45.2881H40V86.9831C40 87.5447 40.4478 88 41 88H75C75.5522 88 76 87.5447 76 86.9831V39.1864H86V85.9661C86 86.5277 86.4478 86.9831 87 86.9831C87.5522 86.9831 88 86.5277 88 85.9661V38.1695C88 37.6079 87.5522 37.1525 87 37.1525ZM57 85.9661H53V76.8136H57V85.9661ZM63 85.9661H59V76.8136H63V85.9661ZM74 85.9661H65V75.7966C65 75.235 64.5522 74.7797 64 74.7797H52C51.4478 74.7797 51 75.235 51 75.7966V85.9661H42V30.0339H74V85.9661Z"/>
<path d="M51 32.0678H45C44.4478 32.0678 44 32.5232 44 33.0848V39.1865C44 39.7481 44.4478 40.2034 45 40.2034H51C51.5523 40.2034 52 39.7481 52 39.1865V33.0848C52 32.5232 51.5523 32.0678 51 32.0678ZM50 38.1695H46V34.1017H50V38.1695Z"/>
<path d="M61 32.0678H55C54.4478 32.0678 54 32.5232 54 33.0848V39.1865C54 39.7481 54.4478 40.2034 55 40.2034H61C61.5522 40.2034 62 39.7481 62 39.1865V33.0848C62 32.5232 61.5522 32.0678 61 32.0678ZM60 38.1695H56V34.1017H60V38.1695Z"/>
<path d="M71 32.0678H65C64.4478 32.0678 64 32.5232 64 33.0848V39.1865C64 39.7481 64.4478 40.2034 65 40.2034H71C71.5522 40.2034 72 39.7481 72 39.1865V33.0848C72 32.5232 71.5522 32.0678 71 32.0678ZM70 38.1695H66V34.1017H70V38.1695Z"/>
<path d="M51 42.2372H45C44.4478 42.2372 44 42.6926 44 43.2542V49.3559C44 49.9175 44.4478 50.3728 45 50.3728H51C51.5523 50.3728 52 49.9175 52 49.3559V43.2542C52 42.6926 51.5523 42.2372 51 42.2372ZM50 48.3389H46V44.2711H50V48.3389Z"/>
<path d="M61 42.2372H55C54.4478 42.2372 54 42.6926 54 43.2542V49.3559C54 49.9175 54.4478 50.3728 55 50.3728H61C61.5522 50.3728 62 49.9175 62 49.3559V43.2542C62 42.6926 61.5522 42.2372 61 42.2372ZM60 48.3389H56V44.2711H60V48.3389Z"/>
<path d="M71 42.2372H65C64.4478 42.2372 64 42.6926 64 43.2542V49.3559C64 49.9175 64.4478 50.3728 65 50.3728H71C71.5522 50.3728 72 49.9175 72 49.3559V43.2542C72 42.6926 71.5522 42.2372 71 42.2372ZM70 48.3389H66V44.2711H70V48.3389Z"/>
<path d="M51 52.4068H45C44.4478 52.4068 44 52.8621 44 53.4237V59.5254C44 60.087 44.4478 60.5424 45 60.5424H51C51.5523 60.5424 52 60.087 52 59.5254V53.4237C52 52.8621 51.5523 52.4068 51 52.4068ZM50 58.5084H46V54.4407H50V58.5084Z"/>
<path d="M61 52.4068H55C54.4478 52.4068 54 52.8621 54 53.4237V59.5254C54 60.087 54.4478 60.5424 55 60.5424H61C61.5522 60.5424 62 60.087 62 59.5254V53.4237C62 52.8621 61.5522 52.4068 61 52.4068ZM60 58.5084H56V54.4407H60V58.5084Z"/>
<path d="M71 52.4068H65C64.4478 52.4068 64 52.8621 64 53.4237V59.5254C64 60.087 64.4478 60.5424 65 60.5424H71C71.5522 60.5424 72 60.087 72 59.5254V53.4237C72 52.8621 71.5522 52.4068 71 52.4068ZM70 58.5084H66V54.4407H70V58.5084Z"/>
<path d="M51 62.5763H45C44.4478 62.5763 44 63.0316 44 63.5932V69.6949C44 70.2565 44.4478 70.7119 45 70.7119H51C51.5523 70.7119 52 70.2565 52 69.6949V63.5932C52 63.0316 51.5523 62.5763 51 62.5763ZM50 68.678H46V64.6102H50V68.678Z"/>
<path d="M61 62.5763H55C54.4478 62.5763 54 63.0316 54 63.5932V69.6949C54 70.2565 54.4478 70.7119 55 70.7119H61C61.5522 70.7119 62 70.2565 62 69.6949V63.5932C62 63.0316 61.5522 62.5763 61 62.5763ZM60 68.678H56V64.6102H60V68.678Z"/>
<path d="M71 62.5763H65C64.4478 62.5763 64 63.0316 64 63.5932V69.6949C64 70.2565 64.4478 70.7119 65 70.7119H71C71.5522 70.7119 72 70.2565 72 69.6949V63.5932C72 63.0316 71.5522 62.5763 71 62.5763ZM70 68.678H66V64.6102H70V68.678Z"/>
<path d="M34 47.322H33C32.4477 47.322 32 47.7774 32 48.339V49.3559C32 49.9175 32.4477 50.3729 33 50.3729H34C34.5522 50.3729 35 49.9175 35 49.3559V48.339C35 47.7774 34.5522 47.322 34 47.322Z"/>
<path d="M38 47.322H37C36.4478 47.322 36 47.7774 36 48.339V49.3559C36 49.9175 36.4478 50.3729 37 50.3729H38C38.5523 50.3729 39 49.9175 39 49.3559V48.339C39 47.7774 38.5523 47.322 38 47.322Z"/>
<path d="M34 51.3898H33C32.4477 51.3898 32 51.8451 32 52.4067V53.4237C32 53.9853 32.4477 54.4406 33 54.4406H34C34.5522 54.4406 35 53.9853 35 53.4237V52.4067C35 51.8451 34.5522 51.3898 34 51.3898Z"/>
<path d="M38 51.3898H37C36.4478 51.3898 36 51.8451 36 52.4067V53.4237C36 53.9853 36.4478 54.4406 37 54.4406H38C38.5523 54.4406 39 53.9853 39 53.4237V52.4067C39 51.8451 38.5523 51.3898 38 51.3898Z"/>
<path d="M34 55.4577H33C32.4477 55.4577 32 55.913 32 56.4746V57.4916C32 58.0532 32.4477 58.5085 33 58.5085H34C34.5522 58.5085 35 58.0532 35 57.4916V56.4746C35 55.913 34.5522 55.4577 34 55.4577Z"/>
<path d="M38 55.4577H37C36.4478 55.4577 36 55.913 36 56.4746V57.4916C36 58.0532 36.4478 58.5085 37 58.5085H38C38.5523 58.5085 39 58.0532 39 57.4916V56.4746C39 55.913 38.5523 55.4577 38 55.4577Z"/>
<path d="M34 59.5254H33C32.4477 59.5254 32 59.9807 32 60.5423V61.5593C32 62.1209 32.4477 62.5762 33 62.5762H34C34.5522 62.5762 35 62.1209 35 61.5593V60.5423C35 59.9807 34.5522 59.5254 34 59.5254Z"/>
<path d="M38 59.5254H37C36.4478 59.5254 36 59.9807 36 60.5423V61.5593C36 62.1209 36.4478 62.5762 37 62.5762H38C38.5523 62.5762 39 62.1209 39 61.5593V60.5423C39 59.9807 38.5523 59.5254 38 59.5254Z"/>
<path d="M34 63.5932H33C32.4477 63.5932 32 64.0485 32 64.6101V65.6271C32 66.1887 32.4477 66.644 33 66.644H34C34.5522 66.644 35 66.1887 35 65.6271V64.6101C35 64.0485 34.5522 63.5932 34 63.5932Z"/>
<path d="M38 63.5932H37C36.4478 63.5932 36 64.0485 36 64.6101V65.6271C36 66.1887 36.4478 66.644 37 66.644H38C38.5523 66.644 39 66.1887 39 65.6271V64.6101C39 64.0485 38.5523 63.5932 38 63.5932Z"/>
<path d="M34 67.661H33C32.4477 67.661 32 68.1163 32 68.678V69.6949C32 70.2565 32.4477 70.7119 33 70.7119H34C34.5522 70.7119 35 70.2565 35 69.6949V68.678C35 68.1163 34.5522 67.661 34 67.661Z"/>
<path d="M38 67.661H37C36.4478 67.661 36 68.1163 36 68.678V69.6949C36 70.2565 36.4478 70.7119 37 70.7119H38C38.5523 70.7119 39 70.2565 39 69.6949V68.678C39 68.1163 38.5523 67.661 38 67.661Z"/>
<path d="M34 71.7288H33C32.4477 71.7288 32 72.1841 32 72.7457V73.7627C32 74.3243 32.4477 74.7796 33 74.7796H34C34.5522 74.7796 35 74.3243 35 73.7627V72.7457C35 72.1841 34.5522 71.7288 34 71.7288Z"/>
<path d="M38 71.7288H37C36.4478 71.7288 36 72.1841 36 72.7457V73.7627C36 74.3243 36.4478 74.7796 37 74.7796H38C38.5523 74.7796 39 74.3243 39 73.7627V72.7457C39 72.1841 38.5523 71.7288 38 71.7288Z"/>
<path d="M34 75.7965H33C32.4477 75.7965 32 76.2519 32 76.8135V77.8304C32 78.392 32.4477 78.8474 33 78.8474H34C34.5522 78.8474 35 78.392 35 77.8304V76.8135C35 76.2519 34.5522 75.7965 34 75.7965Z"/>
<path d="M38 75.7965H37C36.4478 75.7965 36 76.2519 36 76.8135V77.8304C36 78.392 36.4478 78.8474 37 78.8474H38C38.5523 78.8474 39 78.392 39 77.8304V76.8135C39 76.2519 38.5523 75.7965 38 75.7965Z"/>
<path d="M34 79.8644H33C32.4477 79.8644 32 80.3198 32 80.8814V81.8983C32 82.4599 32.4477 82.9153 33 82.9153H34C34.5522 82.9153 35 82.4599 35 81.8983V80.8814C35 80.3198 34.5522 79.8644 34 79.8644Z"/>
<path d="M38 79.8644H37C36.4478 79.8644 36 80.3198 36 80.8814V81.8983C36 82.4599 36.4478 82.9153 37 82.9153H38C38.5523 82.9153 39 82.4599 39 81.8983V80.8814C39 80.3198 38.5523 79.8644 38 79.8644Z"/>
<path d="M83 41.2204H79C78.4478 41.2204 78 41.6757 78 42.2373V46.3051C78 46.8667 78.4478 47.3221 79 47.3221H83C83.5522 47.3221 84 46.8667 84 46.3051V42.2373C84 41.6757 83.5522 41.2204 83 41.2204ZM82 45.2882H80V43.2543H82V45.2882Z"/>
<path d="M83 49.356H79C78.4478 49.356 78 49.8113 78 50.3729V54.4407C78 55.0023 78.4478 55.4577 79 55.4577H83C83.5522 55.4577 84 55.0023 84 54.4407V50.3729C84 49.8113 83.5522 49.356 83 49.356ZM82 53.4238H80V51.3899H82V53.4238Z"/>
<path d="M83 57.4915H79C78.4478 57.4915 78 57.9468 78 58.5084V62.5762C78 63.1378 78.4478 63.5932 79 63.5932H83C83.5522 63.5932 84 63.1378 84 62.5762V58.5084C84 57.9468 83.5522 57.4915 83 57.4915ZM82 61.5593H80V59.5254H82V61.5593Z"/>
<path d="M83 65.6271H79C78.4478 65.6271 78 66.0825 78 66.6441V70.7119C78 71.2735 78.4478 71.7288 79 71.7288H83C83.5522 71.7288 84 71.2735 84 70.7119V66.6441C84 66.0825 83.5522 65.6271 83 65.6271ZM82 69.6949H80V67.661H82V69.6949Z"/>
<path d="M83 73.7627H79C78.4478 73.7627 78 74.2181 78 74.7797V78.8475C78 79.4091 78.4478 79.8644 79 79.8644H83C83.5522 79.8644 84 79.4091 84 78.8475V74.7797C84 74.2181 83.5522 73.7627 83 73.7627ZM82 77.8305H80V75.7966H82V77.8305Z"/>
</mask>
<path d="M87 37.1525H76V29.0169C76 28.4553 75.5522 28 75 28H41C40.4478 28 40 28.4553 40 29.0169V43.2542H29C28.4477 43.2542 28 43.7096 28 44.2712V85.9661C28 86.5277 28.4477 86.9831 29 86.9831C29.5523 86.9831 30 86.5277 30 85.9661V45.2881H40V86.9831C40 87.5447 40.4478 88 41 88H75C75.5522 88 76 87.5447 76 86.9831V39.1864H86V85.9661C86 86.5277 86.4478 86.9831 87 86.9831C87.5522 86.9831 88 86.5277 88 85.9661V38.1695C88 37.6079 87.5522 37.1525 87 37.1525ZM57 85.9661H53V76.8136H57V85.9661ZM63 85.9661H59V76.8136H63V85.9661ZM74 85.9661H65V75.7966C65 75.235 64.5522 74.7797 64 74.7797H52C51.4478 74.7797 51 75.235 51 75.7966V85.9661H42V30.0339H74V85.9661Z" fill="#E0E0E0"/>
<path d="M51 32.0678H45C44.4478 32.0678 44 32.5232 44 33.0848V39.1865C44 39.7481 44.4478 40.2034 45 40.2034H51C51.5523 40.2034 52 39.7481 52 39.1865V33.0848C52 32.5232 51.5523 32.0678 51 32.0678ZM50 38.1695H46V34.1017H50V38.1695Z" fill="#E0E0E0"/>
<path d="M61 32.0678H55C54.4478 32.0678 54 32.5232 54 33.0848V39.1865C54 39.7481 54.4478 40.2034 55 40.2034H61C61.5522 40.2034 62 39.7481 62 39.1865V33.0848C62 32.5232 61.5522 32.0678 61 32.0678ZM60 38.1695H56V34.1017H60V38.1695Z" fill="#E0E0E0"/>
<path d="M71 32.0678H65C64.4478 32.0678 64 32.5232 64 33.0848V39.1865C64 39.7481 64.4478 40.2034 65 40.2034H71C71.5522 40.2034 72 39.7481 72 39.1865V33.0848C72 32.5232 71.5522 32.0678 71 32.0678ZM70 38.1695H66V34.1017H70V38.1695Z" fill="#E0E0E0"/>
<path d="M51 42.2372H45C44.4478 42.2372 44 42.6926 44 43.2542V49.3559C44 49.9175 44.4478 50.3728 45 50.3728H51C51.5523 50.3728 52 49.9175 52 49.3559V43.2542C52 42.6926 51.5523 42.2372 51 42.2372ZM50 48.3389H46V44.2711H50V48.3389Z" fill="#E0E0E0"/>
<path d="M61 42.2372H55C54.4478 42.2372 54 42.6926 54 43.2542V49.3559C54 49.9175 54.4478 50.3728 55 50.3728H61C61.5522 50.3728 62 49.9175 62 49.3559V43.2542C62 42.6926 61.5522 42.2372 61 42.2372ZM60 48.3389H56V44.2711H60V48.3389Z" fill="#E0E0E0"/>
<path d="M71 42.2372H65C64.4478 42.2372 64 42.6926 64 43.2542V49.3559C64 49.9175 64.4478 50.3728 65 50.3728H71C71.5522 50.3728 72 49.9175 72 49.3559V43.2542C72 42.6926 71.5522 42.2372 71 42.2372ZM70 48.3389H66V44.2711H70V48.3389Z" fill="#E0E0E0"/>
<path d="M51 52.4068H45C44.4478 52.4068 44 52.8621 44 53.4237V59.5254C44 60.087 44.4478 60.5424 45 60.5424H51C51.5523 60.5424 52 60.087 52 59.5254V53.4237C52 52.8621 51.5523 52.4068 51 52.4068ZM50 58.5084H46V54.4407H50V58.5084Z" fill="#E0E0E0"/>
<path d="M61 52.4068H55C54.4478 52.4068 54 52.8621 54 53.4237V59.5254C54 60.087 54.4478 60.5424 55 60.5424H61C61.5522 60.5424 62 60.087 62 59.5254V53.4237C62 52.8621 61.5522 52.4068 61 52.4068ZM60 58.5084H56V54.4407H60V58.5084Z" fill="#E0E0E0"/>
<path d="M71 52.4068H65C64.4478 52.4068 64 52.8621 64 53.4237V59.5254C64 60.087 64.4478 60.5424 65 60.5424H71C71.5522 60.5424 72 60.087 72 59.5254V53.4237C72 52.8621 71.5522 52.4068 71 52.4068ZM70 58.5084H66V54.4407H70V58.5084Z" fill="#E0E0E0"/>
<path d="M51 62.5763H45C44.4478 62.5763 44 63.0316 44 63.5932V69.6949C44 70.2565 44.4478 70.7119 45 70.7119H51C51.5523 70.7119 52 70.2565 52 69.6949V63.5932C52 63.0316 51.5523 62.5763 51 62.5763ZM50 68.678H46V64.6102H50V68.678Z" fill="#E0E0E0"/>
<path d="M61 62.5763H55C54.4478 62.5763 54 63.0316 54 63.5932V69.6949C54 70.2565 54.4478 70.7119 55 70.7119H61C61.5522 70.7119 62 70.2565 62 69.6949V63.5932C62 63.0316 61.5522 62.5763 61 62.5763ZM60 68.678H56V64.6102H60V68.678Z" fill="#E0E0E0"/>
<path d="M71 62.5763H65C64.4478 62.5763 64 63.0316 64 63.5932V69.6949C64 70.2565 64.4478 70.7119 65 70.7119H71C71.5522 70.7119 72 70.2565 72 69.6949V63.5932C72 63.0316 71.5522 62.5763 71 62.5763ZM70 68.678H66V64.6102H70V68.678Z" fill="#E0E0E0"/>
<path d="M34 47.322H33C32.4477 47.322 32 47.7774 32 48.339V49.3559C32 49.9175 32.4477 50.3729 33 50.3729H34C34.5522 50.3729 35 49.9175 35 49.3559V48.339C35 47.7774 34.5522 47.322 34 47.322Z" fill="#E0E0E0"/>
<path d="M38 47.322H37C36.4478 47.322 36 47.7774 36 48.339V49.3559C36 49.9175 36.4478 50.3729 37 50.3729H38C38.5523 50.3729 39 49.9175 39 49.3559V48.339C39 47.7774 38.5523 47.322 38 47.322Z" fill="#E0E0E0"/>
<path d="M34 51.3898H33C32.4477 51.3898 32 51.8451 32 52.4067V53.4237C32 53.9853 32.4477 54.4406 33 54.4406H34C34.5522 54.4406 35 53.9853 35 53.4237V52.4067C35 51.8451 34.5522 51.3898 34 51.3898Z" fill="#E0E0E0"/>
<path d="M38 51.3898H37C36.4478 51.3898 36 51.8451 36 52.4067V53.4237C36 53.9853 36.4478 54.4406 37 54.4406H38C38.5523 54.4406 39 53.9853 39 53.4237V52.4067C39 51.8451 38.5523 51.3898 38 51.3898Z" fill="#E0E0E0"/>
<path d="M34 55.4577H33C32.4477 55.4577 32 55.913 32 56.4746V57.4916C32 58.0532 32.4477 58.5085 33 58.5085H34C34.5522 58.5085 35 58.0532 35 57.4916V56.4746C35 55.913 34.5522 55.4577 34 55.4577Z" fill="#E0E0E0"/>
<path d="M38 55.4577H37C36.4478 55.4577 36 55.913 36 56.4746V57.4916C36 58.0532 36.4478 58.5085 37 58.5085H38C38.5523 58.5085 39 58.0532 39 57.4916V56.4746C39 55.913 38.5523 55.4577 38 55.4577Z" fill="#E0E0E0"/>
<path d="M34 59.5254H33C32.4477 59.5254 32 59.9807 32 60.5423V61.5593C32 62.1209 32.4477 62.5762 33 62.5762H34C34.5522 62.5762 35 62.1209 35 61.5593V60.5423C35 59.9807 34.5522 59.5254 34 59.5254Z" fill="#E0E0E0"/>
<path d="M38 59.5254H37C36.4478 59.5254 36 59.9807 36 60.5423V61.5593C36 62.1209 36.4478 62.5762 37 62.5762H38C38.5523 62.5762 39 62.1209 39 61.5593V60.5423C39 59.9807 38.5523 59.5254 38 59.5254Z" fill="#E0E0E0"/>
<path d="M34 63.5932H33C32.4477 63.5932 32 64.0485 32 64.6101V65.6271C32 66.1887 32.4477 66.644 33 66.644H34C34.5522 66.644 35 66.1887 35 65.6271V64.6101C35 64.0485 34.5522 63.5932 34 63.5932Z" fill="#E0E0E0"/>
<path d="M38 63.5932H37C36.4478 63.5932 36 64.0485 36 64.6101V65.6271C36 66.1887 36.4478 66.644 37 66.644H38C38.5523 66.644 39 66.1887 39 65.6271V64.6101C39 64.0485 38.5523 63.5932 38 63.5932Z" fill="#E0E0E0"/>
<path d="M34 67.661H33C32.4477 67.661 32 68.1163 32 68.678V69.6949C32 70.2565 32.4477 70.7119 33 70.7119H34C34.5522 70.7119 35 70.2565 35 69.6949V68.678C35 68.1163 34.5522 67.661 34 67.661Z" fill="#E0E0E0"/>
<path d="M38 67.661H37C36.4478 67.661 36 68.1163 36 68.678V69.6949C36 70.2565 36.4478 70.7119 37 70.7119H38C38.5523 70.7119 39 70.2565 39 69.6949V68.678C39 68.1163 38.5523 67.661 38 67.661Z" fill="#E0E0E0"/>
<path d="M34 71.7288H33C32.4477 71.7288 32 72.1841 32 72.7457V73.7627C32 74.3243 32.4477 74.7796 33 74.7796H34C34.5522 74.7796 35 74.3243 35 73.7627V72.7457C35 72.1841 34.5522 71.7288 34 71.7288Z" fill="#E0E0E0"/>
<path d="M38 71.7288H37C36.4478 71.7288 36 72.1841 36 72.7457V73.7627C36 74.3243 36.4478 74.7796 37 74.7796H38C38.5523 74.7796 39 74.3243 39 73.7627V72.7457C39 72.1841 38.5523 71.7288 38 71.7288Z" fill="#E0E0E0"/>
<path d="M34 75.7965H33C32.4477 75.7965 32 76.2519 32 76.8135V77.8304C32 78.392 32.4477 78.8474 33 78.8474H34C34.5522 78.8474 35 78.392 35 77.8304V76.8135C35 76.2519 34.5522 75.7965 34 75.7965Z" fill="#E0E0E0"/>
<path d="M38 75.7965H37C36.4478 75.7965 36 76.2519 36 76.8135V77.8304C36 78.392 36.4478 78.8474 37 78.8474H38C38.5523 78.8474 39 78.392 39 77.8304V76.8135C39 76.2519 38.5523 75.7965 38 75.7965Z" fill="#E0E0E0"/>
<path d="M34 79.8644H33C32.4477 79.8644 32 80.3198 32 80.8814V81.8983C32 82.4599 32.4477 82.9153 33 82.9153H34C34.5522 82.9153 35 82.4599 35 81.8983V80.8814C35 80.3198 34.5522 79.8644 34 79.8644Z" fill="#E0E0E0"/>
<path d="M38 79.8644H37C36.4478 79.8644 36 80.3198 36 80.8814V81.8983C36 82.4599 36.4478 82.9153 37 82.9153H38C38.5523 82.9153 39 82.4599 39 81.8983V80.8814C39 80.3198 38.5523 79.8644 38 79.8644Z" fill="#E0E0E0"/>
<path d="M83 41.2204H79C78.4478 41.2204 78 41.6757 78 42.2373V46.3051C78 46.8667 78.4478 47.3221 79 47.3221H83C83.5522 47.3221 84 46.8667 84 46.3051V42.2373C84 41.6757 83.5522 41.2204 83 41.2204ZM82 45.2882H80V43.2543H82V45.2882Z" fill="#E0E0E0"/>
<path d="M83 49.356H79C78.4478 49.356 78 49.8113 78 50.3729V54.4407C78 55.0023 78.4478 55.4577 79 55.4577H83C83.5522 55.4577 84 55.0023 84 54.4407V50.3729C84 49.8113 83.5522 49.356 83 49.356ZM82 53.4238H80V51.3899H82V53.4238Z" fill="#E0E0E0"/>
<path d="M83 57.4915H79C78.4478 57.4915 78 57.9468 78 58.5084V62.5762C78 63.1378 78.4478 63.5932 79 63.5932H83C83.5522 63.5932 84 63.1378 84 62.5762V58.5084C84 57.9468 83.5522 57.4915 83 57.4915ZM82 61.5593H80V59.5254H82V61.5593Z" fill="#E0E0E0"/>
<path d="M83 65.6271H79C78.4478 65.6271 78 66.0825 78 66.6441V70.7119C78 71.2735 78.4478 71.7288 79 71.7288H83C83.5522 71.7288 84 71.2735 84 70.7119V66.6441C84 66.0825 83.5522 65.6271 83 65.6271ZM82 69.6949H80V67.661H82V69.6949Z" fill="#E0E0E0"/>
<path d="M83 73.7627H79C78.4478 73.7627 78 74.2181 78 74.7797V78.8475C78 79.4091 78.4478 79.8644 79 79.8644H83C83.5522 79.8644 84 79.4091 84 78.8475V74.7797C84 74.2181 83.5522 73.7627 83 73.7627ZM82 77.8305H80V75.7966H82V77.8305Z" fill="#E0E0E0"/>
<path d="M87 37.1525H76V29.0169C76 28.4553 75.5522 28 75 28H41C40.4478 28 40 28.4553 40 29.0169V43.2542H29C28.4477 43.2542 28 43.7096 28 44.2712V85.9661C28 86.5277 28.4477 86.9831 29 86.9831C29.5523 86.9831 30 86.5277 30 85.9661V45.2881H40V86.9831C40 87.5447 40.4478 88 41 88H75C75.5522 88 76 87.5447 76 86.9831V39.1864H86V85.9661C86 86.5277 86.4478 86.9831 87 86.9831C87.5522 86.9831 88 86.5277 88 85.9661V38.1695C88 37.6079 87.5522 37.1525 87 37.1525ZM57 85.9661H53V76.8136H57V85.9661ZM63 85.9661H59V76.8136H63V85.9661ZM74 85.9661H65V75.7966C65 75.235 64.5522 74.7797 64 74.7797H52C51.4478 74.7797 51 75.235 51 75.7966V85.9661H42V30.0339H74V85.9661Z" stroke="#E0E0E0" stroke-width="0.6" mask="url(#path-3-outside-1)"/>
<path d="M51 32.0678H45C44.4478 32.0678 44 32.5232 44 33.0848V39.1865C44 39.7481 44.4478 40.2034 45 40.2034H51C51.5523 40.2034 52 39.7481 52 39.1865V33.0848C52 32.5232 51.5523 32.0678 51 32.0678ZM50 38.1695H46V34.1017H50V38.1695Z" stroke="#E0E0E0" stroke-width="0.6" mask="url(#path-3-outside-1)"/>
<path d="M61 32.0678H55C54.4478 32.0678 54 32.5232 54 33.0848V39.1865C54 39.7481 54.4478 40.2034 55 40.2034H61C61.5522 40.2034 62 39.7481 62 39.1865V33.0848C62 32.5232 61.5522 32.0678 61 32.0678ZM60 38.1695H56V34.1017H60V38.1695Z" stroke="#E0E0E0" stroke-width="0.6" mask="url(#path-3-outside-1)"/>
<path d="M71 32.0678H65C64.4478 32.0678 64 32.5232 64 33.0848V39.1865C64 39.7481 64.4478 40.2034 65 40.2034H71C71.5522 40.2034 72 39.7481 72 39.1865V33.0848C72 32.5232 71.5522 32.0678 71 32.0678ZM70 38.1695H66V34.1017H70V38.1695Z" stroke="#E0E0E0" stroke-width="0.6" mask="url(#path-3-outside-1)"/>
<path d="M51 42.2372H45C44.4478 42.2372 44 42.6926 44 43.2542V49.3559C44 49.9175 44.4478 50.3728 45 50.3728H51C51.5523 50.3728 52 49.9175 52 49.3559V43.2542C52 42.6926 51.5523 42.2372 51 42.2372ZM50 48.3389H46V44.2711H50V48.3389Z" stroke="#E0E0E0" stroke-width="0.6" mask="url(#path-3-outside-1)"/>
<path d="M61 42.2372H55C54.4478 42.2372 54 42.6926 54 43.2542V49.3559C54 49.9175 54.4478 50.3728 55 50.3728H61C61.5522 50.3728 62 49.9175 62 49.3559V43.2542C62 42.6926 61.5522 42.2372 61 42.2372ZM60 48.3389H56V44.2711H60V48.3389Z" stroke="#E0E0E0" stroke-width="0.6" mask="url(#path-3-outside-1)"/>
<path d="M71 42.2372H65C64.4478 42.2372 64 42.6926 64 43.2542V49.3559C64 49.9175 64.4478 50.3728 65 50.3728H71C71.5522 50.3728 72 49.9175 72 49.3559V43.2542C72 42.6926 71.5522 42.2372 71 42.2372ZM70 48.3389H66V44.2711H70V48.3389Z" stroke="#E0E0E0" stroke-width="0.6" mask="url(#path-3-outside-1)"/>
<path d="M51 52.4068H45C44.4478 52.4068 44 52.8621 44 53.4237V59.5254C44 60.087 44.4478 60.5424 45 60.5424H51C51.5523 60.5424 52 60.087 52 59.5254V53.4237C52 52.8621 51.5523 52.4068 51 52.4068ZM50 58.5084H46V54.4407H50V58.5084Z" stroke="#E0E0E0" stroke-width="0.6" mask="url(#path-3-outside-1)"/>
<path d="M61 52.4068H55C54.4478 52.4068 54 52.8621 54 53.4237V59.5254C54 60.087 54.4478 60.5424 55 60.5424H61C61.5522 60.5424 62 60.087 62 59.5254V53.4237C62 52.8621 61.5522 52.4068 61 52.4068ZM60 58.5084H56V54.4407H60V58.5084Z" stroke="#E0E0E0" stroke-width="0.6" mask="url(#path-3-outside-1)"/>
<path d="M71 52.4068H65C64.4478 52.4068 64 52.8621 64 53.4237V59.5254C64 60.087 64.4478 60.5424 65 60.5424H71C71.5522 60.5424 72 60.087 72 59.5254V53.4237C72 52.8621 71.5522 52.4068 71 52.4068ZM70 58.5084H66V54.4407H70V58.5084Z" stroke="#E0E0E0" stroke-width="0.6" mask="url(#path-3-outside-1)"/>
<path d="M51 62.5763H45C44.4478 62.5763 44 63.0316 44 63.5932V69.6949C44 70.2565 44.4478 70.7119 45 70.7119H51C51.5523 70.7119 52 70.2565 52 69.6949V63.5932C52 63.0316 51.5523 62.5763 51 62.5763ZM50 68.678H46V64.6102H50V68.678Z" stroke="#E0E0E0" stroke-width="0.6" mask="url(#path-3-outside-1)"/>
<path d="M61 62.5763H55C54.4478 62.5763 54 63.0316 54 63.5932V69.6949C54 70.2565 54.4478 70.7119 55 70.7119H61C61.5522 70.7119 62 70.2565 62 69.6949V63.5932C62 63.0316 61.5522 62.5763 61 62.5763ZM60 68.678H56V64.6102H60V68.678Z" stroke="#E0E0E0" stroke-width="0.6" mask="url(#path-3-outside-1)"/>
<path d="M71 62.5763H65C64.4478 62.5763 64 63.0316 64 63.5932V69.6949C64 70.2565 64.4478 70.7119 65 70.7119H71C71.5522 70.7119 72 70.2565 72 69.6949V63.5932C72 63.0316 71.5522 62.5763 71 62.5763ZM70 68.678H66V64.6102H70V68.678Z" stroke="#E0E0E0" stroke-width="0.6" mask="url(#path-3-outside-1)"/>
<path d="M34 47.322H33C32.4477 47.322 32 47.7774 32 48.339V49.3559C32 49.9175 32.4477 50.3729 33 50.3729H34C34.5522 50.3729 35 49.9175 35 49.3559V48.339C35 47.7774 34.5522 47.322 34 47.322Z" stroke="#E0E0E0" stroke-width="0.6" mask="url(#path-3-outside-1)"/>
<path d="M38 47.322H37C36.4478 47.322 36 47.7774 36 48.339V49.3559C36 49.9175 36.4478 50.3729 37 50.3729H38C38.5523 50.3729 39 49.9175 39 49.3559V48.339C39 47.7774 38.5523 47.322 38 47.322Z" stroke="#E0E0E0" stroke-width="0.6" mask="url(#path-3-outside-1)"/>
<path d="M34 51.3898H33C32.4477 51.3898 32 51.8451 32 52.4067V53.4237C32 53.9853 32.4477 54.4406 33 54.4406H34C34.5522 54.4406 35 53.9853 35 53.4237V52.4067C35 51.8451 34.5522 51.3898 34 51.3898Z" stroke="#E0E0E0" stroke-width="0.6" mask="url(#path-3-outside-1)"/>
<path d="M38 51.3898H37C36.4478 51.3898 36 51.8451 36 52.4067V53.4237C36 53.9853 36.4478 54.4406 37 54.4406H38C38.5523 54.4406 39 53.9853 39 53.4237V52.4067C39 51.8451 38.5523 51.3898 38 51.3898Z" stroke="#E0E0E0" stroke-width="0.6" mask="url(#path-3-outside-1)"/>
<path d="M34 55.4577H33C32.4477 55.4577 32 55.913 32 56.4746V57.4916C32 58.0532 32.4477 58.5085 33 58.5085H34C34.5522 58.5085 35 58.0532 35 57.4916V56.4746C35 55.913 34.5522 55.4577 34 55.4577Z" stroke="#E0E0E0" stroke-width="0.6" mask="url(#path-3-outside-1)"/>
<path d="M38 55.4577H37C36.4478 55.4577 36 55.913 36 56.4746V57.4916C36 58.0532 36.4478 58.5085 37 58.5085H38C38.5523 58.5085 39 58.0532 39 57.4916V56.4746C39 55.913 38.5523 55.4577 38 55.4577Z" stroke="#E0E0E0" stroke-width="0.6" mask="url(#path-3-outside-1)"/>
<path d="M34 59.5254H33C32.4477 59.5254 32 59.9807 32 60.5423V61.5593C32 62.1209 32.4477 62.5762 33 62.5762H34C34.5522 62.5762 35 62.1209 35 61.5593V60.5423C35 59.9807 34.5522 59.5254 34 59.5254Z" stroke="#E0E0E0" stroke-width="0.6" mask="url(#path-3-outside-1)"/>
<path d="M38 59.5254H37C36.4478 59.5254 36 59.9807 36 60.5423V61.5593C36 62.1209 36.4478 62.5762 37 62.5762H38C38.5523 62.5762 39 62.1209 39 61.5593V60.5423C39 59.9807 38.5523 59.5254 38 59.5254Z" stroke="#E0E0E0" stroke-width="0.6" mask="url(#path-3-outside-1)"/>
<path d="M34 63.5932H33C32.4477 63.5932 32 64.0485 32 64.6101V65.6271C32 66.1887 32.4477 66.644 33 66.644H34C34.5522 66.644 35 66.1887 35 65.6271V64.6101C35 64.0485 34.5522 63.5932 34 63.5932Z" stroke="#E0E0E0" stroke-width="0.6" mask="url(#path-3-outside-1)"/>
<path d="M38 63.5932H37C36.4478 63.5932 36 64.0485 36 64.6101V65.6271C36 66.1887 36.4478 66.644 37 66.644H38C38.5523 66.644 39 66.1887 39 65.6271V64.6101C39 64.0485 38.5523 63.5932 38 63.5932Z" stroke="#E0E0E0" stroke-width="0.6" mask="url(#path-3-outside-1)"/>
<path d="M34 67.661H33C32.4477 67.661 32 68.1163 32 68.678V69.6949C32 70.2565 32.4477 70.7119 33 70.7119H34C34.5522 70.7119 35 70.2565 35 69.6949V68.678C35 68.1163 34.5522 67.661 34 67.661Z" stroke="#E0E0E0" stroke-width="0.6" mask="url(#path-3-outside-1)"/>
<path d="M38 67.661H37C36.4478 67.661 36 68.1163 36 68.678V69.6949C36 70.2565 36.4478 70.7119 37 70.7119H38C38.5523 70.7119 39 70.2565 39 69.6949V68.678C39 68.1163 38.5523 67.661 38 67.661Z" stroke="#E0E0E0" stroke-width="0.6" mask="url(#path-3-outside-1)"/>
<path d="M34 71.7288H33C32.4477 71.7288 32 72.1841 32 72.7457V73.7627C32 74.3243 32.4477 74.7796 33 74.7796H34C34.5522 74.7796 35 74.3243 35 73.7627V72.7457C35 72.1841 34.5522 71.7288 34 71.7288Z" stroke="#E0E0E0" stroke-width="0.6" mask="url(#path-3-outside-1)"/>
<path d="M38 71.7288H37C36.4478 71.7288 36 72.1841 36 72.7457V73.7627C36 74.3243 36.4478 74.7796 37 74.7796H38C38.5523 74.7796 39 74.3243 39 73.7627V72.7457C39 72.1841 38.5523 71.7288 38 71.7288Z" stroke="#E0E0E0" stroke-width="0.6" mask="url(#path-3-outside-1)"/>
<path d="M34 75.7965H33C32.4477 75.7965 32 76.2519 32 76.8135V77.8304C32 78.392 32.4477 78.8474 33 78.8474H34C34.5522 78.8474 35 78.392 35 77.8304V76.8135C35 76.2519 34.5522 75.7965 34 75.7965Z" stroke="#E0E0E0" stroke-width="0.6" mask="url(#path-3-outside-1)"/>
<path d="M38 75.7965H37C36.4478 75.7965 36 76.2519 36 76.8135V77.8304C36 78.392 36.4478 78.8474 37 78.8474H38C38.5523 78.8474 39 78.392 39 77.8304V76.8135C39 76.2519 38.5523 75.7965 38 75.7965Z" stroke="#E0E0E0" stroke-width="0.6" mask="url(#path-3-outside-1)"/>
<path d="M34 79.8644H33C32.4477 79.8644 32 80.3198 32 80.8814V81.8983C32 82.4599 32.4477 82.9153 33 82.9153H34C34.5522 82.9153 35 82.4599 35 81.8983V80.8814C35 80.3198 34.5522 79.8644 34 79.8644Z" stroke="#E0E0E0" stroke-width="0.6" mask="url(#path-3-outside-1)"/>
<path d="M38 79.8644H37C36.4478 79.8644 36 80.3198 36 80.8814V81.8983C36 82.4599 36.4478 82.9153 37 82.9153H38C38.5523 82.9153 39 82.4599 39 81.8983V80.8814C39 80.3198 38.5523 79.8644 38 79.8644Z" stroke="#E0E0E0" stroke-width="0.6" mask="url(#path-3-outside-1)"/>
<path d="M83 41.2204H79C78.4478 41.2204 78 41.6757 78 42.2373V46.3051C78 46.8667 78.4478 47.3221 79 47.3221H83C83.5522 47.3221 84 46.8667 84 46.3051V42.2373C84 41.6757 83.5522 41.2204 83 41.2204ZM82 45.2882H80V43.2543H82V45.2882Z" stroke="#E0E0E0" stroke-width="0.6" mask="url(#path-3-outside-1)"/>
<path d="M83 49.356H79C78.4478 49.356 78 49.8113 78 50.3729V54.4407C78 55.0023 78.4478 55.4577 79 55.4577H83C83.5522 55.4577 84 55.0023 84 54.4407V50.3729C84 49.8113 83.5522 49.356 83 49.356ZM82 53.4238H80V51.3899H82V53.4238Z" stroke="#E0E0E0" stroke-width="0.6" mask="url(#path-3-outside-1)"/>
<path d="M83 57.4915H79C78.4478 57.4915 78 57.9468 78 58.5084V62.5762C78 63.1378 78.4478 63.5932 79 63.5932H83C83.5522 63.5932 84 63.1378 84 62.5762V58.5084C84 57.9468 83.5522 57.4915 83 57.4915ZM82 61.5593H80V59.5254H82V61.5593Z" stroke="#E0E0E0" stroke-width="0.6" mask="url(#path-3-outside-1)"/>
<path d="M83 65.6271H79C78.4478 65.6271 78 66.0825 78 66.6441V70.7119C78 71.2735 78.4478 71.7288 79 71.7288H83C83.5522 71.7288 84 71.2735 84 70.7119V66.6441C84 66.0825 83.5522 65.6271 83 65.6271ZM82 69.6949H80V67.661H82V69.6949Z" stroke="#E0E0E0" stroke-width="0.6" mask="url(#path-3-outside-1)"/>
<path d="M83 73.7627H79C78.4478 73.7627 78 74.2181 78 74.7797V78.8475C78 79.4091 78.4478 79.8644 79 79.8644H83C83.5522 79.8644 84 79.4091 84 78.8475V74.7797C84 74.2181 83.5522 73.7627 83 73.7627ZM82 77.8305H80V75.7966H82V77.8305Z" stroke="#E0E0E0" stroke-width="0.6" mask="url(#path-3-outside-1)"/>
</svg>
