<svg width="116" height="116" viewBox="0 0 116 116" fill="none" xmlns="http://www.w3.org/2000/svg">
<circle cx="58" cy="58" r="56.5" stroke="#E0E0E0" stroke-width="3"/>
<mask id="path-3-outside-1" maskUnits="userSpaceOnUse" x="25" y="37" width="65" height="42" fill="black">
<rect fill="white" x="25" y="37" width="65" height="42"/>
<path d="M68.4389 60.7562L63.0656 58.368C62.686 58.1993 62.4409 57.8219 62.4409 57.4067V55.9311C64.2459 54.4929 65.4061 52.2782 65.4061 49.7963V47.7192C66.0007 47.3907 66.3944 46.7557 66.3944 46.0446V45.843C66.3944 41.5184 62.876 38 58.5514 38H56.5748C52.2502 38 48.7318 41.5184 48.7318 45.843V47.672C48.7318 48.2971 49.0008 48.8634 49.4697 49.2258C49.5492 49.2872 49.6329 49.3412 49.7201 49.3879V49.7962C49.7201 52.2781 50.8801 54.4928 52.685 55.9309V57.4066C52.685 57.8218 52.4398 58.1992 52.0603 58.3679L46.687 60.756C44.9272 61.5381 43.7901 63.2878 43.7901 65.2135V77.4693C43.7901 77.98 44.2041 78.394 44.7148 78.394C45.2255 78.394 45.6395 77.98 45.6395 77.4693V65.2137C45.6395 65.1065 45.6471 65.0006 45.6582 64.8956L48.1342 67.3715C48.5195 67.7569 48.7318 68.2692 48.7318 68.8143V77.4694C48.7318 77.9801 49.1458 78.3941 49.6565 78.3941C50.1671 78.3941 50.5812 77.9801 50.5812 77.4694V68.8143C50.5812 67.7753 50.1766 66.7986 49.4419 66.0639L46.4902 63.112C46.7561 62.8361 47.0752 62.6074 47.4382 62.446L52.7209 60.0981L56.6385 64.0158V77.4693C56.6385 77.98 57.0525 78.394 57.5632 78.394C58.0739 78.394 58.4879 77.98 58.4879 77.4693V64.0159L62.4055 60.0983L67.6881 62.446C68.051 62.6074 68.3701 62.8361 68.6361 63.1122L65.6843 66.0639C64.9496 66.7986 64.5451 67.7753 64.5451 68.8143V77.4694C64.5451 77.9801 64.9591 78.3941 65.4698 78.3941C65.9805 78.3941 66.3945 77.9801 66.3945 77.4694V68.8143C66.3945 68.2693 66.6067 67.7569 66.9921 67.3715L69.4679 64.8957C69.479 65.0007 69.4867 65.1064 69.4867 65.2135V77.4693C69.4867 77.98 69.9007 78.394 70.4114 78.394C70.922 78.394 71.336 77.98 71.336 77.4693V65.2137C71.3357 63.288 70.1987 61.5382 68.4389 60.7562ZM57.5628 62.3252L54.1253 58.8875C54.3867 58.4478 54.5343 57.9389 54.5343 57.4067V57.0304C55.4667 57.4222 56.4899 57.6393 57.5629 57.6393C58.636 57.6393 59.659 57.4223 60.5914 57.0305V57.4067C60.5914 57.9391 60.739 58.4478 61.0005 58.8877L57.5628 62.3252ZM57.5629 55.7898C54.2581 55.79 51.5693 53.1012 51.5693 49.7963V49.3805C52.1463 49.1518 52.7095 48.7878 53.2487 48.2903C53.6239 47.944 53.6474 47.359 53.301 46.9837C52.9546 46.6085 52.3698 46.585 51.9943 46.9313C51.5319 47.3582 51.0698 47.6341 50.6212 47.7512C50.6104 47.754 50.6024 47.7552 50.5967 47.7557C50.59 47.7428 50.581 47.7157 50.581 47.6721V45.8431C50.581 42.5383 53.2698 39.8495 56.5746 39.8495H58.5513C61.8562 39.8495 64.5449 42.5383 64.5449 45.8431V46.0447C64.5449 46.0746 64.5269 46.1007 64.5032 46.1054C58.966 47.199 56.1887 45.1379 55.2517 44.2009C54.8906 43.8397 54.3051 43.8397 53.9441 44.2009C53.5829 44.562 53.5829 45.1475 53.9441 45.5085C56.8155 48.38 61.0056 48.4318 63.5566 48.1252V49.7962C63.5566 53.1011 60.8678 55.7898 57.5629 55.7898Z"/>
<path d="M42.6743 55.7265V53.7495C42.6743 51.3372 41.4206 49.2136 39.5317 47.9916C39.6483 47.6174 39.7092 47.2254 39.7092 46.8313C39.7092 44.6865 37.9644 42.9416 35.8196 42.9416C33.6748 42.9416 31.93 44.6866 31.93 46.8313C31.93 47.2303 31.9904 47.6185 32.1073 47.9918C30.2184 49.2137 28.9649 51.3373 28.9649 53.7495V55.7262C28.9649 58.0622 30.1403 60.1278 31.9299 61.3659V63.3994C31.9299 63.8004 31.7071 64.1609 31.3484 64.3403L28.1501 65.9394C26.8238 66.6027 26 67.9358 26 69.4186V77.4695C26 77.9802 26.414 78.3942 26.9247 78.3942C27.4354 78.3942 27.8494 77.9802 27.8494 77.4695V69.8186L29.3558 71.325C29.7411 71.7104 29.9534 72.2227 29.9534 72.7677V77.4695C29.9534 77.9802 30.3674 78.3942 30.8781 78.3942C31.3887 78.3942 31.8027 77.9802 31.8027 77.4695V72.7677C31.8027 71.7287 31.3981 70.752 30.6635 70.0173L28.5669 67.9207C28.5568 67.9106 28.546 67.9019 28.5356 67.8924C28.6672 67.7762 28.8148 67.6751 28.9773 67.5938L32.1756 65.9947C32.3394 65.9127 32.4919 65.8159 32.6341 65.7084L34.8949 67.9693V77.4696C34.8949 77.9803 35.3089 78.3943 35.8196 78.3943C36.3303 78.3943 36.7443 77.9803 36.7443 77.4696V67.9692L39.0052 65.7083C39.1475 65.8159 39.2999 65.9127 39.4638 65.9946L40.3457 66.4356C40.4784 66.502 40.6195 66.5335 40.7586 66.5335C41.0977 66.5335 41.4243 66.3461 41.5863 66.0222C41.8148 65.5654 41.6296 65.0099 41.1728 64.7816L40.2909 64.3406C39.9321 64.1612 39.7093 63.8007 39.7093 63.3997V61.3663C41.4989 60.1282 42.6743 58.0624 42.6743 55.7265ZM35.8196 44.791C36.9446 44.791 37.8598 45.7063 37.8598 46.8313C37.8598 46.9552 37.8487 47.0766 37.8275 47.1956C37.1921 47.0005 36.5181 46.8949 35.8196 46.8949C35.1221 46.8949 34.449 47.0002 33.8145 47.1947C33.7932 47.0757 33.7794 46.9549 33.7794 46.8313C33.7794 45.7062 34.6946 44.791 35.8196 44.791ZM35.8196 48.7444C38.5795 48.7444 40.8249 50.9898 40.8249 53.7497V54.0848C36.9751 55.2634 34.6808 52.3349 34.5827 52.2065C34.4218 51.9921 34.1759 51.858 33.9086 51.839C33.6413 51.8203 33.3787 51.918 33.1892 52.1075C32.3065 52.9902 31.442 53.4159 30.8176 53.6214C30.8861 50.9206 33.1027 48.7444 35.8196 48.7444ZM35.8196 66.2784L33.6828 64.1416C33.7452 63.9031 33.7794 63.6546 33.7794 63.3995V62.2708C34.4241 62.4722 35.1094 62.5808 35.8196 62.5808C36.5298 62.5808 37.2151 62.4722 37.8598 62.2708V63.3995C37.8598 63.6546 37.894 63.9033 37.9564 64.1416L35.8196 66.2784ZM35.8196 60.7315C33.0597 60.7315 30.8143 58.4861 30.8143 55.7262V55.5346C31.5517 55.3652 32.6451 54.9715 33.7857 54.0542C34.1892 54.4349 34.766 54.902 35.5004 55.3025C36.3691 55.7763 37.5689 56.2146 39.0343 56.2146C39.5912 56.2146 40.1871 56.1499 40.817 56.0012C40.6736 58.6338 38.4872 60.7315 35.8196 60.7315Z"/>
<path d="M86.9755 63.9631L81.8006 61.3755C81.4419 61.1961 81.2191 60.8356 81.2191 60.4347V59.1242C82.4305 58.0487 83.1957 56.4814 83.1957 54.7381V53.6855C83.2171 53.6855 83.238 53.6862 83.2594 53.6862C83.77 53.6862 84.184 53.2721 84.184 52.7615V50.7848C84.184 47.5501 81.5524 44.9185 78.3177 44.9185H76.3411C73.1064 44.9185 70.4747 47.5501 70.4747 50.7848V52.7615C70.4747 53.2721 70.8887 53.6862 71.3994 53.6862C71.407 53.6862 71.4292 53.6859 71.463 53.6845V54.7381C71.463 56.4816 72.2284 58.0488 73.4397 59.1243V60.4348C73.4397 60.8359 73.217 61.1964 72.8582 61.3756C72.4014 61.604 72.2162 62.1594 72.4447 62.6162C72.6067 62.9402 72.9333 63.1276 73.2724 63.1276C73.4114 63.1276 73.5524 63.0962 73.6852 63.0299C73.8491 62.9479 74.0016 62.8511 74.1437 62.7436L76.4047 65.0045V77.4697C76.4047 77.9804 76.8187 78.3944 77.3294 78.3944C77.84 78.3944 78.2541 77.9804 78.2541 77.4697V65.0042L80.5149 62.7433C80.6572 62.851 80.8095 62.9477 80.9734 63.0296L85.9809 65.5334L84.4621 67.0523C83.7275 67.787 83.3228 68.7637 83.3228 69.8027V77.4695C83.3228 77.9801 83.7369 78.3942 84.2475 78.3942C84.7582 78.3942 85.1722 77.9801 85.1722 77.4695V69.8027C85.1722 69.2577 85.3844 68.7453 85.7698 68.3599L87.2085 66.9212C87.2522 67.0885 87.2761 67.263 87.2761 67.442V77.4695C87.2761 77.9801 87.6901 78.3942 88.2008 78.3942C88.7115 78.3942 89.1255 77.9801 89.1255 77.4695V67.442C89.1256 65.9593 88.3018 64.6262 86.9755 63.9631ZM72.324 51.6465V50.7847C72.324 48.5698 74.1261 46.7677 76.3411 46.7677H78.3177C80.5326 46.7677 82.3347 48.5698 82.3347 50.7847V51.8119C78.315 51.595 75.8892 50.0308 75.8656 50.0154C75.7092 49.9111 75.5307 49.86 75.353 49.86C75.1143 49.86 74.8776 49.9522 74.6988 50.1309C73.8141 51.0156 72.9472 51.4415 72.324 51.6465ZM77.3294 63.3135L75.1926 61.1768C75.255 60.9383 75.2891 60.6898 75.2891 60.4347V60.2378C75.9248 60.4744 76.6122 60.6043 77.3294 60.6043C78.0466 60.6043 78.7339 60.4744 79.3696 60.2378V60.4347C79.3696 60.6898 79.4036 60.9383 79.4661 61.1768L77.3294 63.3135ZM77.3294 58.7551C75.1144 58.7551 73.3124 56.9531 73.3124 54.7381V53.2474C73.96 52.9886 74.7146 52.5771 75.4825 51.9229C76.4535 52.4282 78.4851 53.3015 81.3464 53.59V54.7381C81.3464 56.953 79.5443 58.7551 77.3294 58.7551Z"/>
</mask>
<path d="M68.4389 60.7562L63.0656 58.368C62.686 58.1993 62.4409 57.8219 62.4409 57.4067V55.9311C64.2459 54.4929 65.4061 52.2782 65.4061 49.7963V47.7192C66.0007 47.3907 66.3944 46.7557 66.3944 46.0446V45.843C66.3944 41.5184 62.876 38 58.5514 38H56.5748C52.2502 38 48.7318 41.5184 48.7318 45.843V47.672C48.7318 48.2971 49.0008 48.8634 49.4697 49.2258C49.5492 49.2872 49.6329 49.3412 49.7201 49.3879V49.7962C49.7201 52.2781 50.8801 54.4928 52.685 55.9309V57.4066C52.685 57.8218 52.4398 58.1992 52.0603 58.3679L46.687 60.756C44.9272 61.5381 43.7901 63.2878 43.7901 65.2135V77.4693C43.7901 77.98 44.2041 78.394 44.7148 78.394C45.2255 78.394 45.6395 77.98 45.6395 77.4693V65.2137C45.6395 65.1065 45.6471 65.0006 45.6582 64.8956L48.1342 67.3715C48.5195 67.7569 48.7318 68.2692 48.7318 68.8143V77.4694C48.7318 77.9801 49.1458 78.3941 49.6565 78.3941C50.1671 78.3941 50.5812 77.9801 50.5812 77.4694V68.8143C50.5812 67.7753 50.1766 66.7986 49.4419 66.0639L46.4902 63.112C46.7561 62.8361 47.0752 62.6074 47.4382 62.446L52.7209 60.0981L56.6385 64.0158V77.4693C56.6385 77.98 57.0525 78.394 57.5632 78.394C58.0739 78.394 58.4879 77.98 58.4879 77.4693V64.0159L62.4055 60.0983L67.6881 62.446C68.051 62.6074 68.3701 62.8361 68.6361 63.1122L65.6843 66.0639C64.9496 66.7986 64.5451 67.7753 64.5451 68.8143V77.4694C64.5451 77.9801 64.9591 78.3941 65.4698 78.3941C65.9805 78.3941 66.3945 77.9801 66.3945 77.4694V68.8143C66.3945 68.2693 66.6067 67.7569 66.9921 67.3715L69.4679 64.8957C69.479 65.0007 69.4867 65.1064 69.4867 65.2135V77.4693C69.4867 77.98 69.9007 78.394 70.4114 78.394C70.922 78.394 71.336 77.98 71.336 77.4693V65.2137C71.3357 63.288 70.1987 61.5382 68.4389 60.7562ZM57.5628 62.3252L54.1253 58.8875C54.3867 58.4478 54.5343 57.9389 54.5343 57.4067V57.0304C55.4667 57.4222 56.4899 57.6393 57.5629 57.6393C58.636 57.6393 59.659 57.4223 60.5914 57.0305V57.4067C60.5914 57.9391 60.739 58.4478 61.0005 58.8877L57.5628 62.3252ZM57.5629 55.7898C54.2581 55.79 51.5693 53.1012 51.5693 49.7963V49.3805C52.1463 49.1518 52.7095 48.7878 53.2487 48.2903C53.6239 47.944 53.6474 47.359 53.301 46.9837C52.9546 46.6085 52.3698 46.585 51.9943 46.9313C51.5319 47.3582 51.0698 47.6341 50.6212 47.7512C50.6104 47.754 50.6024 47.7552 50.5967 47.7557C50.59 47.7428 50.581 47.7157 50.581 47.6721V45.8431C50.581 42.5383 53.2698 39.8495 56.5746 39.8495H58.5513C61.8562 39.8495 64.5449 42.5383 64.5449 45.8431V46.0447C64.5449 46.0746 64.5269 46.1007 64.5032 46.1054C58.966 47.199 56.1887 45.1379 55.2517 44.2009C54.8906 43.8397 54.3051 43.8397 53.9441 44.2009C53.5829 44.562 53.5829 45.1475 53.9441 45.5085C56.8155 48.38 61.0056 48.4318 63.5566 48.1252V49.7962C63.5566 53.1011 60.8678 55.7898 57.5629 55.7898Z" fill="#E0E0E0"/>
<path d="M42.6743 55.7265V53.7495C42.6743 51.3372 41.4206 49.2136 39.5317 47.9916C39.6483 47.6174 39.7092 47.2254 39.7092 46.8313C39.7092 44.6865 37.9644 42.9416 35.8196 42.9416C33.6748 42.9416 31.93 44.6866 31.93 46.8313C31.93 47.2303 31.9904 47.6185 32.1073 47.9918C30.2184 49.2137 28.9649 51.3373 28.9649 53.7495V55.7262C28.9649 58.0622 30.1403 60.1278 31.9299 61.3659V63.3994C31.9299 63.8004 31.7071 64.1609 31.3484 64.3403L28.1501 65.9394C26.8238 66.6027 26 67.9358 26 69.4186V77.4695C26 77.9802 26.414 78.3942 26.9247 78.3942C27.4354 78.3942 27.8494 77.9802 27.8494 77.4695V69.8186L29.3558 71.325C29.7411 71.7104 29.9534 72.2227 29.9534 72.7677V77.4695C29.9534 77.9802 30.3674 78.3942 30.8781 78.3942C31.3887 78.3942 31.8027 77.9802 31.8027 77.4695V72.7677C31.8027 71.7287 31.3981 70.752 30.6635 70.0173L28.5669 67.9207C28.5568 67.9106 28.546 67.9019 28.5356 67.8924C28.6672 67.7762 28.8148 67.6751 28.9773 67.5938L32.1756 65.9947C32.3394 65.9127 32.4919 65.8159 32.6341 65.7084L34.8949 67.9693V77.4696C34.8949 77.9803 35.3089 78.3943 35.8196 78.3943C36.3303 78.3943 36.7443 77.9803 36.7443 77.4696V67.9692L39.0052 65.7083C39.1475 65.8159 39.2999 65.9127 39.4638 65.9946L40.3457 66.4356C40.4784 66.502 40.6195 66.5335 40.7586 66.5335C41.0977 66.5335 41.4243 66.3461 41.5863 66.0222C41.8148 65.5654 41.6296 65.0099 41.1728 64.7816L40.2909 64.3406C39.9321 64.1612 39.7093 63.8007 39.7093 63.3997V61.3663C41.4989 60.1282 42.6743 58.0624 42.6743 55.7265ZM35.8196 44.791C36.9446 44.791 37.8598 45.7063 37.8598 46.8313C37.8598 46.9552 37.8487 47.0766 37.8275 47.1956C37.1921 47.0005 36.5181 46.8949 35.8196 46.8949C35.1221 46.8949 34.449 47.0002 33.8145 47.1947C33.7932 47.0757 33.7794 46.9549 33.7794 46.8313C33.7794 45.7062 34.6946 44.791 35.8196 44.791ZM35.8196 48.7444C38.5795 48.7444 40.8249 50.9898 40.8249 53.7497V54.0848C36.9751 55.2634 34.6808 52.3349 34.5827 52.2065C34.4218 51.9921 34.1759 51.858 33.9086 51.839C33.6413 51.8203 33.3787 51.918 33.1892 52.1075C32.3065 52.9902 31.442 53.4159 30.8176 53.6214C30.8861 50.9206 33.1027 48.7444 35.8196 48.7444ZM35.8196 66.2784L33.6828 64.1416C33.7452 63.9031 33.7794 63.6546 33.7794 63.3995V62.2708C34.4241 62.4722 35.1094 62.5808 35.8196 62.5808C36.5298 62.5808 37.2151 62.4722 37.8598 62.2708V63.3995C37.8598 63.6546 37.894 63.9033 37.9564 64.1416L35.8196 66.2784ZM35.8196 60.7315C33.0597 60.7315 30.8143 58.4861 30.8143 55.7262V55.5346C31.5517 55.3652 32.6451 54.9715 33.7857 54.0542C34.1892 54.4349 34.766 54.902 35.5004 55.3025C36.3691 55.7763 37.5689 56.2146 39.0343 56.2146C39.5912 56.2146 40.1871 56.1499 40.817 56.0012C40.6736 58.6338 38.4872 60.7315 35.8196 60.7315Z" fill="#E0E0E0"/>
<path d="M86.9755 63.9631L81.8006 61.3755C81.4419 61.1961 81.2191 60.8356 81.2191 60.4347V59.1242C82.4305 58.0487 83.1957 56.4814 83.1957 54.7381V53.6855C83.2171 53.6855 83.238 53.6862 83.2594 53.6862C83.77 53.6862 84.184 53.2721 84.184 52.7615V50.7848C84.184 47.5501 81.5524 44.9185 78.3177 44.9185H76.3411C73.1064 44.9185 70.4747 47.5501 70.4747 50.7848V52.7615C70.4747 53.2721 70.8887 53.6862 71.3994 53.6862C71.407 53.6862 71.4292 53.6859 71.463 53.6845V54.7381C71.463 56.4816 72.2284 58.0488 73.4397 59.1243V60.4348C73.4397 60.8359 73.217 61.1964 72.8582 61.3756C72.4014 61.604 72.2162 62.1594 72.4447 62.6162C72.6067 62.9402 72.9333 63.1276 73.2724 63.1276C73.4114 63.1276 73.5524 63.0962 73.6852 63.0299C73.8491 62.9479 74.0016 62.8511 74.1437 62.7436L76.4047 65.0045V77.4697C76.4047 77.9804 76.8187 78.3944 77.3294 78.3944C77.84 78.3944 78.2541 77.9804 78.2541 77.4697V65.0042L80.5149 62.7433C80.6572 62.851 80.8095 62.9477 80.9734 63.0296L85.9809 65.5334L84.4621 67.0523C83.7275 67.787 83.3228 68.7637 83.3228 69.8027V77.4695C83.3228 77.9801 83.7369 78.3942 84.2475 78.3942C84.7582 78.3942 85.1722 77.9801 85.1722 77.4695V69.8027C85.1722 69.2577 85.3844 68.7453 85.7698 68.3599L87.2085 66.9212C87.2522 67.0885 87.2761 67.263 87.2761 67.442V77.4695C87.2761 77.9801 87.6901 78.3942 88.2008 78.3942C88.7115 78.3942 89.1255 77.9801 89.1255 77.4695V67.442C89.1256 65.9593 88.3018 64.6262 86.9755 63.9631ZM72.324 51.6465V50.7847C72.324 48.5698 74.1261 46.7677 76.3411 46.7677H78.3177C80.5326 46.7677 82.3347 48.5698 82.3347 50.7847V51.8119C78.315 51.595 75.8892 50.0308 75.8656 50.0154C75.7092 49.9111 75.5307 49.86 75.353 49.86C75.1143 49.86 74.8776 49.9522 74.6988 50.1309C73.8141 51.0156 72.9472 51.4415 72.324 51.6465ZM77.3294 63.3135L75.1926 61.1768C75.255 60.9383 75.2891 60.6898 75.2891 60.4347V60.2378C75.9248 60.4744 76.6122 60.6043 77.3294 60.6043C78.0466 60.6043 78.7339 60.4744 79.3696 60.2378V60.4347C79.3696 60.6898 79.4036 60.9383 79.4661 61.1768L77.3294 63.3135ZM77.3294 58.7551C75.1144 58.7551 73.3124 56.9531 73.3124 54.7381V53.2474C73.96 52.9886 74.7146 52.5771 75.4825 51.9229C76.4535 52.4282 78.4851 53.3015 81.3464 53.59V54.7381C81.3464 56.953 79.5443 58.7551 77.3294 58.7551Z" fill="#E0E0E0"/>
<path d="M68.4389 60.7562L63.0656 58.368C62.686 58.1993 62.4409 57.8219 62.4409 57.4067V55.9311C64.2459 54.4929 65.4061 52.2782 65.4061 49.7963V47.7192C66.0007 47.3907 66.3944 46.7557 66.3944 46.0446V45.843C66.3944 41.5184 62.876 38 58.5514 38H56.5748C52.2502 38 48.7318 41.5184 48.7318 45.843V47.672C48.7318 48.2971 49.0008 48.8634 49.4697 49.2258C49.5492 49.2872 49.6329 49.3412 49.7201 49.3879V49.7962C49.7201 52.2781 50.8801 54.4928 52.685 55.9309V57.4066C52.685 57.8218 52.4398 58.1992 52.0603 58.3679L46.687 60.756C44.9272 61.5381 43.7901 63.2878 43.7901 65.2135V77.4693C43.7901 77.98 44.2041 78.394 44.7148 78.394C45.2255 78.394 45.6395 77.98 45.6395 77.4693V65.2137C45.6395 65.1065 45.6471 65.0006 45.6582 64.8956L48.1342 67.3715C48.5195 67.7569 48.7318 68.2692 48.7318 68.8143V77.4694C48.7318 77.9801 49.1458 78.3941 49.6565 78.3941C50.1671 78.3941 50.5812 77.9801 50.5812 77.4694V68.8143C50.5812 67.7753 50.1766 66.7986 49.4419 66.0639L46.4902 63.112C46.7561 62.8361 47.0752 62.6074 47.4382 62.446L52.7209 60.0981L56.6385 64.0158V77.4693C56.6385 77.98 57.0525 78.394 57.5632 78.394C58.0739 78.394 58.4879 77.98 58.4879 77.4693V64.0159L62.4055 60.0983L67.6881 62.446C68.051 62.6074 68.3701 62.8361 68.6361 63.1122L65.6843 66.0639C64.9496 66.7986 64.5451 67.7753 64.5451 68.8143V77.4694C64.5451 77.9801 64.9591 78.3941 65.4698 78.3941C65.9805 78.3941 66.3945 77.9801 66.3945 77.4694V68.8143C66.3945 68.2693 66.6067 67.7569 66.9921 67.3715L69.4679 64.8957C69.479 65.0007 69.4867 65.1064 69.4867 65.2135V77.4693C69.4867 77.98 69.9007 78.394 70.4114 78.394C70.922 78.394 71.336 77.98 71.336 77.4693V65.2137C71.3357 63.288 70.1987 61.5382 68.4389 60.7562ZM57.5628 62.3252L54.1253 58.8875C54.3867 58.4478 54.5343 57.9389 54.5343 57.4067V57.0304C55.4667 57.4222 56.4899 57.6393 57.5629 57.6393C58.636 57.6393 59.659 57.4223 60.5914 57.0305V57.4067C60.5914 57.9391 60.739 58.4478 61.0005 58.8877L57.5628 62.3252ZM57.5629 55.7898C54.2581 55.79 51.5693 53.1012 51.5693 49.7963V49.3805C52.1463 49.1518 52.7095 48.7878 53.2487 48.2903C53.6239 47.944 53.6474 47.359 53.301 46.9837C52.9546 46.6085 52.3698 46.585 51.9943 46.9313C51.5319 47.3582 51.0698 47.6341 50.6212 47.7512C50.6104 47.754 50.6024 47.7552 50.5967 47.7557C50.59 47.7428 50.581 47.7157 50.581 47.6721V45.8431C50.581 42.5383 53.2698 39.8495 56.5746 39.8495H58.5513C61.8562 39.8495 64.5449 42.5383 64.5449 45.8431V46.0447C64.5449 46.0746 64.5269 46.1007 64.5032 46.1054C58.966 47.199 56.1887 45.1379 55.2517 44.2009C54.8906 43.8397 54.3051 43.8397 53.9441 44.2009C53.5829 44.562 53.5829 45.1475 53.9441 45.5085C56.8155 48.38 61.0056 48.4318 63.5566 48.1252V49.7962C63.5566 53.1011 60.8678 55.7898 57.5629 55.7898Z" stroke="#E0E0E0" stroke-width="0.6" mask="url(#path-3-outside-1)"/>
<path d="M42.6743 55.7265V53.7495C42.6743 51.3372 41.4206 49.2136 39.5317 47.9916C39.6483 47.6174 39.7092 47.2254 39.7092 46.8313C39.7092 44.6865 37.9644 42.9416 35.8196 42.9416C33.6748 42.9416 31.93 44.6866 31.93 46.8313C31.93 47.2303 31.9904 47.6185 32.1073 47.9918C30.2184 49.2137 28.9649 51.3373 28.9649 53.7495V55.7262C28.9649 58.0622 30.1403 60.1278 31.9299 61.3659V63.3994C31.9299 63.8004 31.7071 64.1609 31.3484 64.3403L28.1501 65.9394C26.8238 66.6027 26 67.9358 26 69.4186V77.4695C26 77.9802 26.414 78.3942 26.9247 78.3942C27.4354 78.3942 27.8494 77.9802 27.8494 77.4695V69.8186L29.3558 71.325C29.7411 71.7104 29.9534 72.2227 29.9534 72.7677V77.4695C29.9534 77.9802 30.3674 78.3942 30.8781 78.3942C31.3887 78.3942 31.8027 77.9802 31.8027 77.4695V72.7677C31.8027 71.7287 31.3981 70.752 30.6635 70.0173L28.5669 67.9207C28.5568 67.9106 28.546 67.9019 28.5356 67.8924C28.6672 67.7762 28.8148 67.6751 28.9773 67.5938L32.1756 65.9947C32.3394 65.9127 32.4919 65.8159 32.6341 65.7084L34.8949 67.9693V77.4696C34.8949 77.9803 35.3089 78.3943 35.8196 78.3943C36.3303 78.3943 36.7443 77.9803 36.7443 77.4696V67.9692L39.0052 65.7083C39.1475 65.8159 39.2999 65.9127 39.4638 65.9946L40.3457 66.4356C40.4784 66.502 40.6195 66.5335 40.7586 66.5335C41.0977 66.5335 41.4243 66.3461 41.5863 66.0222C41.8148 65.5654 41.6296 65.0099 41.1728 64.7816L40.2909 64.3406C39.9321 64.1612 39.7093 63.8007 39.7093 63.3997V61.3663C41.4989 60.1282 42.6743 58.0624 42.6743 55.7265ZM35.8196 44.791C36.9446 44.791 37.8598 45.7063 37.8598 46.8313C37.8598 46.9552 37.8487 47.0766 37.8275 47.1956C37.1921 47.0005 36.5181 46.8949 35.8196 46.8949C35.1221 46.8949 34.449 47.0002 33.8145 47.1947C33.7932 47.0757 33.7794 46.9549 33.7794 46.8313C33.7794 45.7062 34.6946 44.791 35.8196 44.791ZM35.8196 48.7444C38.5795 48.7444 40.8249 50.9898 40.8249 53.7497V54.0848C36.9751 55.2634 34.6808 52.3349 34.5827 52.2065C34.4218 51.9921 34.1759 51.858 33.9086 51.839C33.6413 51.8203 33.3787 51.918 33.1892 52.1075C32.3065 52.9902 31.442 53.4159 30.8176 53.6214C30.8861 50.9206 33.1027 48.7444 35.8196 48.7444ZM35.8196 66.2784L33.6828 64.1416C33.7452 63.9031 33.7794 63.6546 33.7794 63.3995V62.2708C34.4241 62.4722 35.1094 62.5808 35.8196 62.5808C36.5298 62.5808 37.2151 62.4722 37.8598 62.2708V63.3995C37.8598 63.6546 37.894 63.9033 37.9564 64.1416L35.8196 66.2784ZM35.8196 60.7315C33.0597 60.7315 30.8143 58.4861 30.8143 55.7262V55.5346C31.5517 55.3652 32.6451 54.9715 33.7857 54.0542C34.1892 54.4349 34.766 54.902 35.5004 55.3025C36.3691 55.7763 37.5689 56.2146 39.0343 56.2146C39.5912 56.2146 40.1871 56.1499 40.817 56.0012C40.6736 58.6338 38.4872 60.7315 35.8196 60.7315Z" stroke="#E0E0E0" stroke-width="0.6" mask="url(#path-3-outside-1)"/>
<path d="M86.9755 63.9631L81.8006 61.3755C81.4419 61.1961 81.2191 60.8356 81.2191 60.4347V59.1242C82.4305 58.0487 83.1957 56.4814 83.1957 54.7381V53.6855C83.2171 53.6855 83.238 53.6862 83.2594 53.6862C83.77 53.6862 84.184 53.2721 84.184 52.7615V50.7848C84.184 47.5501 81.5524 44.9185 78.3177 44.9185H76.3411C73.1064 44.9185 70.4747 47.5501 70.4747 50.7848V52.7615C70.4747 53.2721 70.8887 53.6862 71.3994 53.6862C71.407 53.6862 71.4292 53.6859 71.463 53.6845V54.7381C71.463 56.4816 72.2284 58.0488 73.4397 59.1243V60.4348C73.4397 60.8359 73.217 61.1964 72.8582 61.3756C72.4014 61.604 72.2162 62.1594 72.4447 62.6162C72.6067 62.9402 72.9333 63.1276 73.2724 63.1276C73.4114 63.1276 73.5524 63.0962 73.6852 63.0299C73.8491 62.9479 74.0016 62.8511 74.1437 62.7436L76.4047 65.0045V77.4697C76.4047 77.9804 76.8187 78.3944 77.3294 78.3944C77.84 78.3944 78.2541 77.9804 78.2541 77.4697V65.0042L80.5149 62.7433C80.6572 62.851 80.8095 62.9477 80.9734 63.0296L85.9809 65.5334L84.4621 67.0523C83.7275 67.787 83.3228 68.7637 83.3228 69.8027V77.4695C83.3228 77.9801 83.7369 78.3942 84.2475 78.3942C84.7582 78.3942 85.1722 77.9801 85.1722 77.4695V69.8027C85.1722 69.2577 85.3844 68.7453 85.7698 68.3599L87.2085 66.9212C87.2522 67.0885 87.2761 67.263 87.2761 67.442V77.4695C87.2761 77.9801 87.6901 78.3942 88.2008 78.3942C88.7115 78.3942 89.1255 77.9801 89.1255 77.4695V67.442C89.1256 65.9593 88.3018 64.6262 86.9755 63.9631ZM72.324 51.6465V50.7847C72.324 48.5698 74.1261 46.7677 76.3411 46.7677H78.3177C80.5326 46.7677 82.3347 48.5698 82.3347 50.7847V51.8119C78.315 51.595 75.8892 50.0308 75.8656 50.0154C75.7092 49.9111 75.5307 49.86 75.353 49.86C75.1143 49.86 74.8776 49.9522 74.6988 50.1309C73.8141 51.0156 72.9472 51.4415 72.324 51.6465ZM77.3294 63.3135L75.1926 61.1768C75.255 60.9383 75.2891 60.6898 75.2891 60.4347V60.2378C75.9248 60.4744 76.6122 60.6043 77.3294 60.6043C78.0466 60.6043 78.7339 60.4744 79.3696 60.2378V60.4347C79.3696 60.6898 79.4036 60.9383 79.4661 61.1768L77.3294 63.3135ZM77.3294 58.7551C75.1144 58.7551 73.3124 56.9531 73.3124 54.7381V53.2474C73.96 52.9886 74.7146 52.5771 75.4825 51.9229C76.4535 52.4282 78.4851 53.3015 81.3464 53.59V54.7381C81.3464 56.953 79.5443 58.7551 77.3294 58.7551Z" stroke="#E0E0E0" stroke-width="0.6" mask="url(#path-3-outside-1)"/>
</svg>
