<svg width="161" height="36" viewBox="0 0 161 36" fill="none" xmlns="http://www.w3.org/2000/svg">
<path d="M51.7227 28H49.3667L40.4189 14.3037V28H38.063V10.2266H40.4189L49.3911 23.9839V10.2266H51.7227V28ZM61.0122 28.2441C59.2218 28.2441 57.7651 27.6582 56.6421 26.4863C55.519 25.3063 54.9575 23.7316 54.9575 21.7622V21.3472C54.9575 20.0369 55.2057 18.8691 55.7021 17.8438C56.2067 16.8102 56.9066 16.0046 57.8018 15.4268C58.7051 14.8408 59.6816 14.5479 60.7314 14.5479C62.4486 14.5479 63.7832 15.1134 64.7354 16.2446C65.6875 17.3758 66.1636 18.9953 66.1636 21.103V22.043H57.2158C57.2484 23.3451 57.6268 24.3989 58.3511 25.2046C59.0835 26.0021 60.0112 26.4009 61.1343 26.4009C61.9318 26.4009 62.6073 26.2381 63.1606 25.9126C63.714 25.5871 64.1982 25.1558 64.6133 24.6187L65.9927 25.6929C64.8859 27.3937 63.2257 28.2441 61.0122 28.2441ZM60.7314 16.4033C59.82 16.4033 59.055 16.737 58.4365 17.4043C57.818 18.0635 57.4355 18.9912 57.2891 20.1875H63.9053V20.0166C63.8402 18.8691 63.5309 17.9821 62.9775 17.3555C62.4242 16.7207 61.6755 16.4033 60.7314 16.4033ZM68.1899 21.2739C68.1899 19.98 68.4422 18.8162 68.9468 17.7827C69.4595 16.7492 70.1675 15.9517 71.0708 15.3901C71.9823 14.8286 73.0199 14.5479 74.1836 14.5479C75.9821 14.5479 77.4347 15.1704 78.5415 16.4155C79.6564 17.6606 80.2139 19.3167 80.2139 21.3838V21.5425C80.2139 22.8283 79.9657 23.9839 79.4692 25.0093C78.981 26.0265 78.277 26.82 77.3574 27.3896C76.446 27.9593 75.3962 28.2441 74.208 28.2441C72.4176 28.2441 70.965 27.6216 69.8501 26.3765C68.7433 25.1313 68.1899 23.4834 68.1899 21.4326V21.2739ZM70.4604 21.5425C70.4604 23.0073 70.7982 24.1833 71.4736 25.0703C72.1572 25.9574 73.0687 26.4009 74.208 26.4009C75.3555 26.4009 76.2669 25.9533 76.9424 25.0581C77.6178 24.1548 77.9556 22.8934 77.9556 21.2739C77.9556 19.8254 77.6097 18.6535 76.918 17.7583C76.2344 16.855 75.3229 16.4033 74.1836 16.4033C73.0687 16.4033 72.1694 16.8468 71.4858 17.7339C70.8022 18.6209 70.4604 19.8905 70.4604 21.5425Z" fill="#007380"/>
<rect x="78.5175" y="10.8857" width="16.5045" height="2" transform="rotate(-40 78.5175 10.8857)" fill="#007380"/>
<rect x="102.488" y="12.3273" width="16.5045" height="2" transform="rotate(-140 102.488 12.3273)" fill="#007380"/>
<path d="M87 10H96V14H87V10Z" fill="#007380"/>
<rect x="88" y="11" width="3" height="2" fill="white"/>
<rect x="92" y="11" width="3" height="2" fill="white"/>
<path d="M87 15H96V19H87V15Z" fill="#007380"/>
<rect x="88" y="16" width="3" height="2" fill="white"/>
<rect x="92" y="16" width="3" height="2" fill="white"/>
<rect x="84" y="10" width="2" height="18" fill="#007380"/>
<rect x="85" y="22" width="2" height="14" transform="rotate(-90 85 22)" fill="#007380"/>
<rect x="97" y="10" width="2" height="18" fill="#007380"/>
<circle cx="91.5" cy="25.5" r="2.5" fill="#007380"/>
<rect x="89" y="25.5" width="5" height="2.5" fill="#007380"/>
<path d="M101.244 21.4668C101.244 20.0176 101.527 18.7142 102.092 17.5566C102.666 16.3991 103.459 15.5059 104.471 14.877C105.492 14.248 106.654 13.9336 107.957 13.9336C109.971 13.9336 111.598 14.6309 112.838 16.0254C114.087 17.4199 114.711 19.2747 114.711 21.5898V21.7676C114.711 23.2077 114.433 24.502 113.877 25.6504C113.33 26.7897 112.542 27.6784 111.512 28.3164C110.491 28.9544 109.315 29.2734 107.984 29.2734C105.979 29.2734 104.352 28.5762 103.104 27.1816C101.864 25.7871 101.244 23.9414 101.244 21.6445V21.4668ZM103.787 21.7676C103.787 23.4082 104.165 24.7253 104.922 25.7188C105.688 26.7122 106.708 27.209 107.984 27.209C109.27 27.209 110.29 26.7077 111.047 25.7051C111.803 24.6934 112.182 23.2806 112.182 21.4668C112.182 19.8444 111.794 18.5319 111.02 17.5293C110.254 16.5176 109.233 16.0117 107.957 16.0117C106.708 16.0117 105.701 16.5085 104.936 17.502C104.17 18.4954 103.787 19.9173 103.787 21.7676ZM127.016 27.5371C126.031 28.6947 124.587 29.2734 122.682 29.2734C121.105 29.2734 119.902 28.8177 119.072 27.9062C118.252 26.9857 117.837 25.6276 117.828 23.832V14.207H120.357V23.7637C120.357 26.0059 121.269 27.127 123.092 27.127C125.024 27.127 126.309 26.4069 126.947 24.9668V14.207H129.477V29H127.07L127.016 27.5371ZM141.945 25.0762C141.945 24.3926 141.686 23.8639 141.166 23.4902C140.656 23.1074 139.758 22.7793 138.473 22.5059C137.197 22.2324 136.18 21.9043 135.424 21.5215C134.676 21.1387 134.12 20.6829 133.756 20.1543C133.4 19.6257 133.223 18.9967 133.223 18.2676C133.223 17.0553 133.733 16.0299 134.754 15.1914C135.784 14.3529 137.096 13.9336 138.691 13.9336C140.368 13.9336 141.727 14.3665 142.766 15.2324C143.814 16.0983 144.338 17.2057 144.338 18.5547H141.795C141.795 17.862 141.499 17.265 140.906 16.7637C140.323 16.2624 139.585 16.0117 138.691 16.0117C137.771 16.0117 137.051 16.2122 136.531 16.6133C136.012 17.0143 135.752 17.5384 135.752 18.1855C135.752 18.7962 135.993 19.2565 136.477 19.5664C136.96 19.8763 137.83 20.1725 139.088 20.4551C140.355 20.7376 141.38 21.0749 142.164 21.4668C142.948 21.8587 143.527 22.3327 143.9 22.8887C144.283 23.4355 144.475 24.1055 144.475 24.8984C144.475 26.2201 143.946 27.2819 142.889 28.084C141.831 28.877 140.46 29.2734 138.773 29.2734C137.589 29.2734 136.54 29.0638 135.629 28.6445C134.717 28.2253 134.002 27.6419 133.482 26.8945C132.972 26.138 132.717 25.3223 132.717 24.4473H135.246C135.292 25.2949 135.629 25.9694 136.258 26.4707C136.896 26.9629 137.734 27.209 138.773 27.209C139.73 27.209 140.496 27.0176 141.07 26.6348C141.654 26.2428 141.945 25.7233 141.945 25.0762ZM153.908 29.2734C151.903 29.2734 150.271 28.6172 149.014 27.3047C147.756 25.9831 147.127 24.2194 147.127 22.0137V21.5488C147.127 20.0814 147.405 18.7734 147.961 17.625C148.526 16.4674 149.31 15.5651 150.312 14.918C151.324 14.2617 152.418 13.9336 153.594 13.9336C155.517 13.9336 157.012 14.5671 158.078 15.834C159.145 17.1009 159.678 18.9147 159.678 21.2754V22.3281H149.656C149.693 23.7865 150.117 24.9668 150.928 25.8691C151.748 26.7624 152.787 27.209 154.045 27.209C154.938 27.209 155.695 27.0267 156.314 26.6621C156.934 26.2975 157.477 25.8145 157.941 25.2129L159.486 26.416C158.247 28.321 156.387 29.2734 153.908 29.2734ZM153.594 16.0117C152.573 16.0117 151.716 16.3854 151.023 17.1328C150.331 17.8711 149.902 18.9102 149.738 20.25H157.148V20.0586C157.076 18.7734 156.729 17.7799 156.109 17.0781C155.49 16.3672 154.651 16.0117 153.594 16.0117Z" fill="#007380"/>
</svg>
